<svg width="502" height="123" xmlns="http://www.w3.org/2000/svg"><g fill="none" fill-rule="evenodd"><path d="M143.94 20.462h20.218v33.694h30.576V20.462h20.092v83.24h-20.092V70.63h-30.576v33.072h-20.217zM242.28 65.139h23.338c-.584-4.492-1.77-7.695-3.557-9.61-1.79-1.913-4.43-2.869-7.924-2.869-6.659 0-10.608 4.16-11.856 12.479m41.806 11.856h-41.682c1.58 8.734 7.445 13.104 17.597 13.104 3.077 0 6.092-.438 9.047-1.311 2.953-.873 6.093-2.016 9.424-3.432v15.975c-6.824 2.826-14.478 4.242-22.964 4.242-6.408 0-12.024-1.31-16.848-3.93-4.826-2.622-8.57-6.384-11.232-11.295-2.664-4.908-3.994-10.69-3.994-17.348 0-10.981 2.724-19.487 8.175-25.52 5.448-6.032 13.207-9.048 23.275-9.048 19.717 0 29.452 12.853 29.202 38.563M328.514 91.596c1.664-.582 2.496-1.748 2.496-3.495v-9.733c-2.912-.999-6.115-1.499-9.61-1.499-4.077 0-7.05.605-8.922 1.81-1.872 1.207-2.808 3.1-2.808 5.678 0 2.415.977 4.37 2.932 5.867 1.955 1.497 4.264 2.245 6.928 2.245 4.324 0 7.32-.29 8.984-.873m12.48-48.11c5.657 3.204 8.487 8.967 8.487 17.284l-.124 29.827c-.086 5.243-2.706 9.048-7.864 11.419-5.16 2.372-12.687 3.557-22.588 3.557-18.471 0-27.704-7.195-27.704-21.59 0-6.073 1.892-10.814 5.677-14.227 3.785-3.41 9.423-5.116 16.91-5.116 3.078 0 6.157.396 9.235 1.185 3.076.792 5.74 1.81 7.987 3.057V64.89c0-7.239-4.66-10.857-13.976-10.857-3.579 0-7.261.646-11.045 1.933-3.787 1.292-6.802 2.852-9.048 4.681V44.173c2.246-1.497 5.678-2.787 10.296-3.87 4.617-1.08 9.588-1.622 14.913-1.622 6.904 0 13.185 1.604 18.844 4.805M360.961 16.717h18.471v86.984h-18.47zM402.955 101.08c-3.62-3.41-5.428-8.317-5.428-14.725V54.78h-9.236V40.553h9.236V23.207h19.467v17.346h13.853V54.78h-13.853v29.204c0 2.164.457 3.764 1.375 4.804.913 1.041 2.452 1.56 4.616 1.56 1.33 0 2.704-.23 4.118-.687 1.415-.456 2.662-1.102 3.744-1.934v15.849c-3.162 1.748-7.03 2.621-11.605 2.621-7.239 0-12.668-1.705-16.287-5.117M493.62 44.297c4.077 3.662 6.115 9.652 6.115 17.972v41.432h-18.594V66.137c0-7.986-3.994-11.98-11.982-11.98-1.913 0-3.868.291-5.864.874-1.997.581-3.537 1.29-4.618 2.121l-.25 46.55h-18.469V15.594h18.719v27.83c5.741-3.078 11.689-4.618 17.846-4.618 7.32 0 13.019 1.83 17.098 5.49" fill="#5C2D90" fill-rule="nonzero"/><path d="M100.999 18.766C89.595 7.794 74.88 2.366 60.18 2.366c-15.5 0-30.99 6.052-42.548 18.106C6.68 31.882 1.24 46.602 1.245 61.272c-.005 15.508 6.058 31 18.112 42.57 11.404 10.928 26.106 16.388 40.806 16.388 15.496 0 30.977-6.058 42.541-18.1 10.933-11.411 16.405-26.118 16.405-40.812 0-15.51-6.065-30.988-18.11-42.552M96.303 76.12c0 15.783-17.622 17.298-30.096 17.356H54.98v-14.2h22.291v-10.85h-22.29V53.712h24.646V42.256H41.911v51.238H27.489V29.088h38.718c11.544 0 30.096 1.598 30.096 16.879 0 7.553-6.468 13.09-14.027 14.993 9.368 2.87 14.027 7.504 14.027 15.16" fill="#0069B4"/></g></svg>